# xmcd
#
# Track frame offsets: 
#        150
#        22475
#        43830
#        64419
#        86632
#        106668
#        128606
#        150067
#        171961
#        192161
#        213693
#        235325
#        256723
#        275135
#        290469
#        314535
#
# Disc length: 4471 seconds
#
# Revision: 2
# Processed by: cddbd v1.5.2PL0 Copyright (c) Steve Scherf et al.
# Submitted via: ExactAudioCopyFreeDBPlugin 1.0
#
DISCID=ea117510
DTITLE=CDS制作 - TEST-CD-05B【试音极品碟】
DYEAR=2011
DGENRE=stereo
TTITLE0=莲心
TTITLE1=抱紧眼前人
TTITLE2=云淡风轻
TTITLE3=万泉河水清又清
TTITLE4=梦向何处寻
TTITLE5=呼伦贝尔大草原
TTITLE6=在那东山顶上
TTITLE7=风中的遗憾
TTITLE8=离别前夕
TTITLE9=梅花三弄
TTITLE10=军港之夜
TTITLE11=梦醉西楼
TTITLE12=寻梦园
TTITLE13=驿动的心
TTITLE14=从不放弃
TTITLE15=你照亮我的心
EXTD=
EXTT0=
EXTT1=
EXTT2=
EXTT3=
EXTT4=
EXTT5=
EXTT6=
EXTT7=
EXTT8=
EXTT9=
EXTT10=
EXTT11=
EXTT12=
EXTT13=
EXTT14=
EXTT15=
PLAYORDER=
